<svg xmlns="http://www.w3.org/2000/svg" version="1.1" xmlns:xlink="http://www.w3.org/1999/xlink" xmlns:svgjs="http://svgjs.dev/svgjs" width="1000" height="1000" viewBox="0 0 1000 1000"><g transform="matrix(1,0,0,1,-0.14221556886212738,-0.14221556886229791)"><svg viewBox="0 0 334 334" data-background-color="#ffffff" preserveAspectRatio="xMidYMid meet" height="1000" width="1000" xmlns="http://www.w3.org/2000/svg" xmlns:xlink="http://www.w3.org/1999/xlink"><g id="tight-bounds" transform="matrix(1,0,0,1,0.04749999999998522,0.04750000000001364)"><svg viewBox="0 0 333.90454557049503 333.90454557049503" height="333.90454557049503" width="333.90454557049503"><g><svg></svg></g><g><svg viewBox="0 0 333.90454557049503 333.90454557049503" height="333.90454557049503" width="333.90454557049503"><g><path d="M0 166.952c0-92.205 74.747-166.952 166.952-166.952 92.205 0 166.952 74.747 166.953 166.952 0 92.205-74.747 166.952-166.953 166.953-92.205 0-166.952-74.747-166.952-166.953zM166.952 316.63c82.665 0 149.677-67.013 149.678-149.678 0-82.665-67.013-149.677-149.678-149.677-82.665 0-149.677 67.013-149.677 149.677 0 82.665 67.013 149.677 149.677 149.678z" data-fill-palette-color="tertiary" fill="#ef86c1" stroke="transparent"></path><ellipse rx="160.27418187383762" ry="160.27418187383762" cx="166.95227278524752" cy="166.95227278524752" fill="#ef86c1" stroke="transparent" stroke-width="0" fill-opacity="1" data-fill-palette-color="tertiary"></ellipse></g><g transform="matrix(1,0,0,1,81.73236961933974,71.17305217166896)"><svg viewBox="0 0 170.43980633181556 191.55844122715712" height="191.55844122715712" width="170.43980633181556"><g><svg viewBox="0 0 170.43980633181556 191.55844122715712" height="191.55844122715712" width="170.43980633181556"><g><svg viewBox="0 0 170.43980633181556 191.55844122715712" height="191.55844122715712" width="170.43980633181556"><g><svg viewBox="0 0 170.43980633181556 191.55844122715712" height="191.55844122715712" width="170.43980633181556"><g id="textblocktransform"><svg viewBox="0 0 170.43980633181556 191.55844122715712" height="191.55844122715712" width="170.43980633181556" id="textblock"><g><svg viewBox="0 0 170.43980633181556 191.55844122715712" height="191.55844122715712" width="170.43980633181556"><g transform="matrix(1,0,0,1,0,0)"><svg width="170.43980633181556" viewBox="1.7599999904632568 -36.22999954223633 33.4900016784668 37.650001525878906" height="191.55844122715712" data-palette-color="#ffffff"><path d="M34.86-5.32L34.86-5.32Q34.72-4.05 34.45-2.83 34.18-1.61 33.79-0.66 33.4 0.29 32.79 0.85 32.18 1.42 31.4 1.42L31.4 1.42Q30.62 1.42 29.98 0.22 29.35-0.98 28.78-2.95 28.22-4.93 27.76-7.42 27.29-9.91 26.93-12.48 26.56-15.04 26.32-17.48 26.07-19.92 25.93-21.73L25.93-21.73Q25.63-19.87 25.24-17.58 24.85-15.28 24.32-12.92 23.78-10.55 23.14-8.28 22.51-6.01 21.78-4.22 21.04-2.44 20.21-1.37 19.38-0.29 18.46-0.29L18.46-0.29Q17.63-0.29 16.8-1.42 15.97-2.54 15.19-4.37 14.4-6.2 13.72-8.45 13.04-10.69 12.45-12.96 11.87-15.23 11.43-17.26 10.99-19.29 10.74-20.65L10.74-20.65Q10.74-19.63 10.72-18.38 10.69-17.14 10.69-16.6L10.69-16.6Q10.69-16.36 10.67-14.99 10.64-13.62 10.5-11.72 10.35-9.81 10.06-7.64 9.77-5.47 9.2-3.61 8.64-1.76 7.81-0.49 6.98 0.78 5.76 0.88L5.76 0.88Q4.79 0.44 4.13-0.61 3.47-1.66 3.03-3.08 2.59-4.49 2.34-6.1 2.1-7.71 1.95-9.25 1.81-10.79 1.78-12.11 1.76-13.43 1.76-14.26L1.76-14.26Q1.76-15.72 1.93-17.94 2.1-20.17 2.49-22.61 2.88-25.05 3.52-27.49 4.15-29.93 5.05-31.86 5.96-33.79 7.15-35.01 8.35-36.23 9.91-36.23L9.91-36.23Q10.64-36.23 11.47-35.4 12.3-34.57 13.13-33.23 13.96-31.88 14.75-30.22 15.53-28.56 16.24-26.88 16.94-25.2 17.48-23.66 18.02-22.12 18.36-21.04L18.36-21.04Q18.75-22.22 19.34-23.78 19.92-25.34 20.63-27.03 21.34-28.71 22.19-30.35 23.05-31.98 23.97-33.28 24.9-34.57 25.85-35.38 26.81-36.18 27.78-36.18L27.78-36.18Q29.49-36.18 30.71-34.91 31.93-33.64 32.76-31.62 33.59-29.59 34.08-27.08 34.57-24.56 34.84-22.09 35.11-19.63 35.18-17.48 35.25-15.33 35.25-14.01L35.25-14.01Q35.25-13.48 35.25-12.55 35.25-11.62 35.23-10.45 35.21-9.28 35.11-7.96 35.01-6.64 34.86-5.32Z" opacity="1" transform="matrix(1,0,0,1,0,0)" fill="#ffffff" class="wordmark-text-0" data-fill-palette-color="quaternary" id="text-0"></path></svg></g></svg></g></svg></g></svg></g><g></g></svg></g></svg></g></svg></g></svg></g><defs></defs></svg><rect width="333.90454557049503" height="333.90454557049503" fill="none" stroke="none" visibility="hidden"></rect></g></svg></g></svg>